<svg
    xmlns="http://www.w3.org/2000/svg"
    width="24"
    height="24"
    viewBox="0 0 24 24"
    fill="none"
    stroke="currentColor"
    stroke-width="2"
    stroke-linecap="round"
    stroke-linejoin="round"
    class="developer-icon"
  >
    <!-- White background -->
    <rect width="24" height="24" fill="white" />
    
    <path d="M8 3H7a2 2 0 0 0-2 2v5a2 2 0 0 1-2 2 2 2 0 0 1 2 2v5a2 2 0 0 0 2 2h1" />
    <path d="M16 3h1a2 2 0 0 1 2 2v5a2 2 0 0 0 2 2 2 2 0 0 0-2 2v5a2 2 0 0 1-2 2h-1" />
    <path d="m9 10-2 2 2 2" />
    <path d="m15 10 2 2-2 2" />
</svg>