<svg xmlns="http://www.w3.org/2000/svg" version="1.1" width="400px" height="400px" viewBox="0 0 200 200" style="overflow:hidden!important;"><g id="svga-group-wrapper"><g id="svga-group-backs-single"></g><g id="svga-group-humanwrap-move" transform="matrix(1,0,0,1,0,-6)"><g id="svga-group-humanwrap" transform="matrix(0.8499994000000002,0,0,0.8499994000000002,15.00005742506903,19.35757674335173)"><g id="svga-group-hair-back-move" transform="matrix(1,0,0,1,0,0)"><g id="svga-group-hair-back"></g></g><g id="svga-group-humanbody-back"><path id="SvgjsPath12966" d="m170 180.3-27.3-6.9-18-9.9-1.5-28.2H76.8l-1.5 28.2-18 9.9-27.3 6.9-9.1 19.7-3 20h164.2l-3-20z" fill="#f0c7b1" stroke-width="none" opacity="1" stroke="none"></path><path id="SvgjsPath12967" d="m76.8 135.3-1.5 28.2-18 9.9-27.3 6.9-9.1 19.7-3 20h14.6v-20l2.7-17.7 23.8-6.4 24.7-8.3 3.5-32.3z" fill="#d19271" stroke-width="none" opacity="1" stroke="none"></path></g><g id="svga-group-chinshadow-single"><path id="SvgjsPath13295" d="m121.8 145.8 1.8-2.6-.4-7.9H76.8l-.7 14.1L89 162.9l8.2-.9 8.2.9z" fill="#c27b55" stroke-width="none" opacity="1" stroke="none"></path></g><g id="svga-group-humanbody-front"><path id="SvgjsPath12968" d="m92.8 168.3 2 7.9 6.9 4.6s-8.5-3-8.7-3.6c-.2-.6-.2-8.9-.2-8.9z" fill="#d19271" stroke-width="none" opacity="1" stroke="none"></path></g><g id="svga-group-clothes-single"><path id="SvgjsPath12849" d="m184.7 220-8.1-35.4-4.8-3.5-1.5-2-17.6-6.8-8.6-15.9-3.8-1.6-7.3-9-9.4-3.1.6 11-1.3 10.1-8.9 9.1-8.1 9.8-2.5 5-1.7-3.2-4.5-3.8-11.2-7.8-8.9-9.1-1.3-10.1.6-11-9.4 3.1-7.3 9-3.8 1.6-8.6 15.9-17.6 6.8-1.5 2-4.8 3.5-8.1 35.4z" fill="#222222" stroke-width="none" opacity="1" stroke="none"></path><path id="SvgjsPath12850" d="m134.2 188.8-15 3.8-9.9.2-.1-1.7 1.3-.1-.7-2.3-3.2.3-.1 2.3.8-.1v1.6h-2.1l2.1.2.1 5.9-.7 7.4 1.6 7.5.3 4.8 2.6-1-.3-5.1-2-6.6.9-7.3-.3-5.6 9.7.7 15.8-4.1 16-12.2 2-5.3-3.2 4.1-15.6 12.6zm-32.2 4.3-2.5-.2.2-1.8.6.1 1.2-2.2-3.3-2.3-2 1.9 1.2 2.3h.1v1.9l-1.5-.1-26-6.9-15.8-11 1.9-11L59 160l11 18.7 17.7 7.2-14.8-7.9-8.1-12.4 2.2-19.8-7.2 8.9-3.8 1.7-8.6 15.8-17.7 6.8-1.5 2-4.8 3.5-8.1 35.5h10.2l1.3-14.3 3.3-18.1 2.9 2.6 2.6 13.9 1.2 15.9v-16.2l-2.6-15.3-2.2-4.3 1.4-1.7 16.7-6L69 187.3l26.8 6.2 1.5-.1-.1 3.4 1.4 9.9s-3 9.8-2.8 9.9c.3.2 1.7 2.8 1.8 2.6.1-.3 3.5-12.5 3.5-12.5l-1.9-10.4.3-3.1 2.5-.1zm-26.2-39.4.6-10.8-4 5.1-.7 8.4 5.4 7.5-1.3-10.2zm49.1 11 6.7-6.9-.7-10.8-7.3-4.3.6 11-1.3 10.2-8.9 9.1-8.1 9.8-2.5 5 6.5-8.5 15-14.6zm-18.1 22.4 22.9-5 11.2-13.4 3.2-12.3-3.8-1.7-2.4 13-8.6 13.1-22.5 6.3zm56.5 9.7.8 21.6.5-20.4 4.5-13.1-5.8 11.9z" fill="#131313" stroke-width="none" opacity="1" stroke="none"></path><path id="SvgjsPath12851" d="m137.4 165.7 1.2-10.5-6-6.2 1.4 10.3-10.3 16.1-14 8.7 18.6-4.5 9.1-13.9zm13.6 6.2-6.2-10.1c.2.6-2.1 9.5-2.1 9.5l-10.3 12.4-15.5 7.2 16.7-3.1 15.7-12.6 1.7-3.3zm24.8 14-3.7-1.9-2.3 5.6 3.9 9.3 3.9 19.2 4.1.2-5.9-32.4zm-7.7-6.5-14.4-4.8-2.5 5-8.3 5.6 19.4.6 4.5 1.2 3.7-5.6-2.4-2zM85 175.6l-10.1-10.3-3.7-7.4-1.4.6 3.1 11.6 11.6 9.1 14.4 5.6 3.1 3.9-3.3-5.6-13.7-7.5zm43.1-12.5-16.7 16.1-6.6 8.5 13.4-11.6 9.9-13z" fill="#313131" stroke-width="none" opacity="1" stroke="none"></path></g><g id="svga-group-head" transform="matrix(1,0,0,1,0,0)"><g id="svga-group-ears-left-move" transform="matrix(1,0,0,1,0,0)"><g id="svga-group-ears-left"><path id="SvgjsPath12864" d="m66.3 102.2-3-7.2-9.2-8-3.6 12.9 4.7 12.7-.4 5.6 5 2.4 6-11.1z" fill="#f0c7b1" stroke-width="none" opacity="1" stroke="none"></path><path id="SvgjsPath12865" d="m52.5 100 1.9-8.4 3.7 10.6-.8 1 .4 5.9s-3.3-2.1-3.3-2.7.3-6.2.3-6.2l.9-.3-.9-4.5-1.6 6.1.4 3-1-4.5z" fill="#d19271" stroke-width="none" opacity="1" stroke="none"></path><path id="SvgjsPath12866" d="m60.4 111.8-.7-12L54.1 87l9.2 8 3 7.2-.5 7.3-6 11.1-5-2.4 4.8.3z" fill="#e1ac8f" stroke-width="none" opacity="1" stroke="none"></path></g></g><g id="svga-group-ears-right-move" transform="matrix(1,0,0,1,0,0)"><g id="svga-group-ears-right"><path id="SvgjsPath12867" d="m133.7 102.2 3-7.2 9.2-8 3.6 12.9-4.7 12.7.4 5.6-5 2.4-6-11.1z" fill="#f0c7b1" stroke-width="none" opacity="1" stroke="none"></path><path id="SvgjsPath12868" d="m147.5 100-1.9-8.4-3.7 10.6.8 1-.4 5.9s3.3-2.1 3.3-2.7-.3-6.2-.3-6.2l-.9-.3.9-4.5 1.6 6.1-.4 3 1-4.5z" fill="#d19271" stroke-width="none" opacity="1" stroke="none"></path><path id="SvgjsPath12869" d="m139.6 111.8.7-12 5.6-12.8-9.2 8-3 7.2.5 7.3 6 11.1 5-2.4-4.8.3z" fill="#e1ac8f" stroke-width="none" opacity="1" stroke="none"></path></g></g><g id="svga-group-faceshape-wrap"><g id="svga-group-faceshape-single"><path id="SvgjsPath13283" d="M138.1 59.9c-6.9-11.6-19.7-19.5-19.7-19.5-7.2-1.5-18.4-2.3-18.4-2.3s-11.1.8-18.4 2.3c0 0-12.8 7.9-19.7 19.5 0 0-5.1 14.5-5.3 24.8l4.4 34.9L75.5 140 92 157.2l8.2-.9 8.2.9 16.5-17.2 14.5-20.4 4.4-34.9c-.6-10.3-5.7-24.8-5.7-24.8z" fill="#f0c7b1" stroke-width="none" opacity="1" stroke="none"></path><path id="SvgjsPath13284" d="m99.8 155.1-7.5.2-13-18-14-19.2L60.6 84l5.2-23 17-18.2 17-2.5 18.6.1c-7.2-1.5-18.4-2.3-18.4-2.3s-11.1.8-18.4 2.3c0 0-12.8 7.9-19.7 19.5 0 0-5.1 14.5-5.3 24.8l4.4 34.9L75.5 140 92 157.2l8.2-.9 8.2.9 16.5-17.2-16.9 15.8-8.2-.7z" fill="#d19271" stroke-width="none" opacity="1" stroke="none"></path><path id="SvgjsPath13285" d="m98.6 152.1-.3-2.8 2.5-2.6-1.4 3.2z" fill="#e1ac8f" stroke-width="none" opacity="1" stroke="none"></path></g></g><g id="svga-group-mouth-single-move" transform="matrix(1,0,0,1,0,0)"><g id="svga-group-mouth-single"><path id="SvgjsPath16271" d="m84.99 125.5 2.75 3.94 12.37-.68 12.45.84 3.02-3.87-3.73 2.46-6.81-2.5-4.93 1.46-4.57-1.35-7.7 1.93z" fill="#da7c87" stroke-width="none" opacity="1" transform="translate(0 2)"></path><path id="SvgjsPath16272" d="m89.12 131.92 1.15 2.64 10.05 2.86 10.83-3.61-10.89 2.15-9.41-2.31-1.73-1.73z" fill="#d19271" stroke-width="none" opacity="1" transform="translate(0 2)"></path></g></g><g id="svga-group-eyes-left-move" transform="matrix(1,0,0,1,2,0)"><g id="svga-group-eyes-left" transform="matrix(0.8999996000000001,0,0,0.8999996000000001,7.955031743705746,9.525038481471242)"><g id="svga-group-eyesback-left"><path id="SvgjsPath13939" d="M92.5 96.6 88 92.7S75 92 74.7 92s-6.3 4.2-6.1 4.4c.2.2 6.5 3 9 3.5 0 0 3.8 0 7.7-.8 2.8-.8 5.7-1.9 7.2-2.5z" fill="#ffffff" stroke-width="none" opacity="1"></path></g><g id="svga-group-eyesiriswrapper-left" transform="matrix(1,0,0,1,0,0)"><g id="svga-group-eyesiriscontrol-left" transform="matrix(1,0,0,1,0,0)"><g id="svga-group-eyesiris-left"><path id="SvgjsPath12983" d="m82.2 100.2-5.5-2-1-5.8 4.5-3.8 5.5 2.1 1 5.7z" fill="#00910d" stroke-width="none" opacity="1"></path><path id="SvgjsPath12984" d="m78.2 95.4.6-3.1 3-1 2.4 2.1-.7 3.1-3 1z" fill="#000000" stroke-width="none" opacity="1"></path><path id="SvgjsPath12985" d="m78 91.7 2.2 2.1.6-.4-1.2-2.7z" fill="#ffffff" stroke-width="none" opacity="1"></path><path id="SvgjsPath12986" d="m82.1 96.4.5 1 .8-.4-.4-1z" fill="#ffffff" stroke-width="none" opacity="1"></path></g></g></g><g id="svga-group-eyesfront-left"><path id="SvgjsPath13947" d="M67.1 89.3v11.9l7.9 8.4h11.2l7.9-8.4V89.3l-7.9-8.4H75l-7.9 8.4zm1.5 7c-.2-.2 5.9-4.4 6.1-4.4s13.3.8 13.3.8l4.5 3.9c-1.5.7-4.4 1.8-7.2 2.4-3.9.9-7.7.8-7.7.8-2.5-.4-8.7-3.3-9-3.5z" fill="#f0c7b1" stroke-width="none" opacity="1" stroke="none"></path><path id="SvgjsPath13948" d="m93 96.8-1.2-.5-4.1-3.4-12.9-.6-4.5 3.1-1.1 1 6.3 2.8-2.9-.7-4.7-2.1 1.8-1.8 5-3 13.3.9z" fill="#000000" stroke-width="none" opacity="1" stroke="none"></path><path id="SvgjsPath13949" d="m91.5 94.7-3.8-4.5-9.7-.1-2.9 1.3 3.4-.9 9.1.2z" fill="#e1ac8f" stroke-width="none" opacity="1" stroke="none"></path></g></g></g><g id="svga-group-eyes-right-move" transform="matrix(1,0,0,1,-2,0)"><g id="svga-group-eyes-right" transform="matrix(0.8999996000000001,0,0,0.8999996000000001,12.045048256294237,9.515038594059746)"><g id="svga-group-eyesback-right"><path id="SvgjsPath13940" d="m107.5 96.6 4.5-3.9s13-.7 13.3-.7 6.3 4.2 6.1 4.4c-.2.2-6.5 3-9 3.5 0 0-3.8 0-7.7-.8-2.8-.8-5.7-1.9-7.2-2.5z" fill="#ffffff" stroke-width="none" opacity="1"></path></g><g id="svga-group-eyesiriswrapper-right" transform="matrix(1,0,0,1,0,0)"><g id="svga-group-eyesiriscontrol-right" transform="matrix(1,0,0,1,0,0)"><g id="svga-group-eyesiris-right"><path id="SvgjsPath12987" d="m119.8 100.2-5.5-2-1-5.8 4.5-3.8 5.5 2.1 1 5.7z" fill="#00910d" stroke-width="none" opacity="1"></path><path id="SvgjsPath12988" d="m115.8 95.4.7-3.1 3-1 2.3 2.1-.6 3.1-3 1z" fill="#000000" stroke-width="none" opacity="1"></path><path id="SvgjsPath12989" d="m115.7 91.7 2.2 2.1.6-.4-1.2-2.7z" fill="#ffffff" stroke-width="none" opacity="1"></path><path id="SvgjsPath12990" d="m119.7 96.4.6 1 .8-.4-.4-1z" fill="#ffffff" stroke-width="none" opacity="1"></path></g></g></g><g id="svga-group-eyesfront-right"><path id="SvgjsPath13950" d="M125 80.8h-11.2l-7.9 8.4v11.9l7.9 8.4H125l7.9-8.4V89.3l-7.9-8.5zm-2.6 19s-3.8 0-7.7-.8c-2.8-.6-5.7-1.7-7.2-2.4l4.5-3.9s13-.7 13.3-.7 6.3 4.2 6.1 4.4-6.5 3-9 3.4z" fill="#f0c7b1" stroke-width="none" opacity="1" stroke="none"></path><path id="SvgjsPath13953" d="m107 96.8 1.2-.5 4.1-3.4 12.9-.6 4.5 3.1 1.1 1-6.3 2.8 2.9-.7 4.7-2.1-1.8-1.8-5-3-13.3.9z" fill="#000000" stroke-width="none" opacity="1" stroke="none"></path><path id="SvgjsPath13954" d="m108.5 94.7 3.8-4.5 9.7-.1 2.9 1.3-3.4-.9-9.1.2z" fill="#e1ac8f" stroke-width="none" opacity="1" stroke="none"></path></g></g></g><g id="svga-group-facehighlight-single"></g><g id="svga-group-eyebrows-left-move" transform="matrix(1,0,0,1,1,2)"><g id="svga-group-eyebrows-left-rotate" transform="matrix(0.9914448609181883,0.130526195680847,-0.130526195680847,0.9914448609181883,11.67043936386986,-9.656489838663532)"><g id="svga-group-eyebrows-left" transform="matrix(0.8999996000000001,0,0,0.8999996000000001,7.950031799999991,8.420033756294245)"><path id="SvgjsPath14367" d="M74.2 77.6 71 79l-5 9 8.5-4.6 17.3 3.7.9-6z" fill="#2a232b" stroke-width="none" opacity="1"></path><path id="SvgjsPath14368" d="m87.9 84-1.2-4-1.7-.4 2.9 4.4zM73 78.2l5.6 4.6-4.4-5.2-1.2.6zm6.9.5 3.8 5-1.9-4.6-1.9-.4zm-11.7 5.4 2.7-1.5-2.1.5-.6 1zm14.7-4.8 1.7 1.9-.5-1.7-1.2-.2zm-12.4.7 3.8.8L71 79l-.5 1zm16.6.1 3.5 5.2-1.4-4.7-2.1-.5z" fill="#3a353a" stroke-width="none" opacity="1"></path></g></g></g><g id="svga-group-eyebrows-right-move" transform="matrix(1,0,0,1,-1,2)"><g id="svga-group-eyebrows-right-rotate" transform="matrix(0.9978589230103034,0.06540313271332766,-0.06540313271332766,0.9978589230103034,5.506508620779584,-7.712828236016705)"><g id="svga-group-eyebrows-right" transform="matrix(0.8999996000000001,0,0,0.8999996000000001,12.055048525176986,8.430033643705741)"><path id="SvgjsPath14369" d="m107.3 81.1.9 6 17.3-3.7L134 88l-5-9-3.2-1.4z" fill="#2a232b" stroke-width="none" opacity="1"></path><path id="SvgjsPath14370" d="m115 79.6-1.7.3-1.2 4 2.9-4.3zm10.8-2-4.4 5.2 5.6-4.6-1.2-.6zm-7.6 1.5-1.9 4.6 3.8-5-1.9.4zm12.9 4-2.1-.5 2.7 1.5-.6-1zm-15.2-3.6-.5 1.7 1.7-1.9-1.2.2zM129 79l-3.2 1.8 3.8-.8-.6-1zm-18.2 1.5-1.4 4.7 3.5-5.2-2.1.5z" fill="#3a353a" stroke-width="none" opacity="1"></path></g></g></g><g id="svga-group-beardwrap"><g id="svga-group-beard-single-move" transform="matrix(1,0,0,1,0,0)"><g id="svga-group-beard-single"></g></g></g><g id="svga-group-mustache-single-move" transform="matrix(1,0,0,1,0,0)"><g id="svga-group-mustache-single"></g></g><g id="svga-group-nose-single-move" transform="matrix(1,0,0,1,0,0)"><g id="svga-group-nose-single"><path id="SvgjsPath13020" d="m101.76 120.47-1.7 1.73-1.96-1.75-7.07-1.54 2.07-10.6 1.69-.57h10.4l1.75.67 2.3 10.65-5.49 1.01z" fill="#f0c7b1" stroke-width="none" opacity="1" transform="translate(0 1)" stroke="none"></path><path id="SvgjsPath13021" d="m107.26 107.86-.82-.1-1.25-.02 1.4.98 1.59 9.81-4.1 1.13-1.44.82 7.39-1.02z" fill="#d19271" stroke-width="none" opacity="1" transform="translate(0 1)" stroke="none"></path><path id="SvgjsPath13022" d="m103.87 116.99-3.57 3.73h-.61l-3.57-3.73-3.49.52 1.33 1.23 2.05-.52 3.47 4.56h1.03l3.46-4.56 2.06.52 1.33-1.23z" fill="#d19271" stroke-width="none" opacity="1" transform="translate(0 1)" stroke="none"></path><path id="SvgjsPath13023" d="m95.91 119.66-4.11-1.13 1.59-9.81 1.4-.98-.78.01 2.14-16.73-3.02 16.79-.4.05-2.77 11.6 7.39 1.02z" fill="#d19271" stroke-width="none" opacity="1" transform="translate(0 1)" stroke="none"></path><path id="SvgjsPath13024" d="m103.13 90.66 1.75 12.21.82.67-2-11.76z" fill="#d19271" stroke-width="none" opacity="1" transform="translate(0 1)" stroke="none"></path><path id="SvgjsPath13025" d="M104.83 116.16s1.99.43 1.99.21-1-7.11-1-7.11l-1-.71v7.61z" fill="#f8d5c3" stroke-width="none" opacity="1" transform="translate(0 1)" stroke="none"></path><path id="SvgjsPath13026" d="m99.93 116.94 3.06-.5-1.71-20.11-.57-1.85z" fill="#f8d5c3" stroke-width="none" opacity="1" transform="translate(0 1)" stroke="none"></path></g></g><g id="svga-group-hair-front"></g><g id="svga-group-glasses-single-move" transform="matrix(1,0,0,1,0,0)"><g id="svga-group-glasses-single"><path id="SvgjsPath16945" d="M72.3 101.7 85 91.9l.1.2-12.6 9.8-.2-.2zm6.3-1-.2-.2 9.8-7.6.2.2-9.8 7.6zm-7.8 0-.2-.2 9.9-7.6.1.2-9.8 7.6zm43 1 12.6-9.8.1.2-12.6 9.8-.1-.2zm6.3-1-.2-.2 9.8-7.6.2.2-9.8 7.6zm-7.8 0-.2-.2 9.8-7.6.2.2-9.8 7.6z" fill="#ffffff" stroke-width="none" opacity="0.5"></path><path id="SvgjsPath16946" d="M91.3 102.5H68l-1.1-1.2v-8.6l1.1-1.1h24.3l1.2 1.1v7.6l-2.2 2.2zm18 0h23.2l1.1-1.1v-8.7l-1.1-1.1h-24.3l-1.1 1.1v7.6l2.2 2.2z" fill="#ffffff" stroke-width="none" opacity="0.37"></path><path id="SvgjsPath16947" d="M94 94.9c.4 0 .8 1 .8 2.3s-.4 2.3-.8 2.3-.8-1-.8-2.3.4-2.3.8-2.3zm12.5 0c.4 0 .8 1 .8 2.3s-.4 2.3-.8 2.3-.8-1-.8-2.3.4-2.3.8-2.3z" fill="#939393" stroke-width="none" opacity="1"></path><path id="SvgjsPath16948" d="m93.5 94.1 6.8-.6 6.8.6v1.3l-6.8-.6-6.8.6z" fill="#070201" stroke-width="none" opacity="1"></path><path id="SvgjsPath16949" d="M92.3 91.2H65.2v1.9h1.3v8.3l1.5 1.5h23.3l2.6-2.6v-7.6l-1.6-1.5zm.8 9.1-1.8 1.8H68l-.7-.7v-8.7l.7-.7h24.3l.7.7.1 7.6zm42.2-9.1h-27.2l-1.5 1.5v7.6l2.6 2.6h23.3l1.5-1.5v-8.3h1.3v-1.9zm-2.1 10.1-.7.7h-23.3l-1.8-1.8v-7.6l.7-.7h24.3l.7.7.1 8.7z" fill="#26120b" stroke-width="none" opacity="1"></path></g></g></g></g></g><rect id="svga-credit-rect" width="200" height="15" x="0" y="185" fill="#ecf0f1" opacity="0.5" style="display: none;"></rect><text id="svga-credit-text" font-family="Avenir Next, Roboto, Helvetica, Arial, sans-serif" font-size="10px" text-anchor="start" font-weight="400" size="10px" anchor="start" weight="400" fill="#333333" x="33.40447998046875" y="182.60824704170227" style="display: none;"><tspan id="SvgjsTspan12821" dy="13" x="33.40447998046875">Created on AvatarMaker.com</tspan></text></g><defs id="SvgjsDefs12768"><linearGradient id="SvgjsLinearGradient15453" x1="81.75" y1="113.3" x2="81.75" y2="91.3713" gradientTransform="matrix(1 0 0 -1 0 200)" gradientUnits="userSpaceOnUse" class="svga-on-canvas-glasses-gradient-single-0-null"><stop id="SvgjsStop15454" stop-opacity="1" stop-color="#9bc2cf" offset="0" ></stop><stop id="SvgjsStop15455" stop-opacity="0" stop-color="#6086c4" offset="1" ></stop></linearGradient><linearGradient id="SvgjsLinearGradient15457" x1="-18.25" y1="113.3" x2="-18.25" y2="91.3713" gradientTransform="matrix(-1 0 0 -1 100 200)" gradientUnits="userSpaceOnUse" class="svga-on-canvas-glasses-gradient-single-1-null"><stop id="SvgjsStop15458" stop-opacity="1" stop-color="#9bc2cf" offset="0" ></stop><stop id="SvgjsStop15459" stop-opacity="0" stop-color="#6086c4" offset="1" ></stop></linearGradient><linearGradient id="SvgjsLinearGradient15500" x1="79.5858" y1="85.3082" x2="79.5858" y2="110.785" gradientUnits="userSpaceOnUse" class="svga-on-canvas-glasses-gradient-single-0-null"><stop id="SvgjsStop15501" stop-opacity="1" stop-color="#899ba1" offset="0" ></stop><stop id="SvgjsStop15502" stop-opacity="0.6554" stop-color="#7490b3" offset="0.3446" ></stop><stop id="SvgjsStop15503" stop-opacity="0.2966" stop-color="#6589c0" offset="0.7034" ></stop><stop id="SvgjsStop15504" stop-opacity="0" stop-color="#6086c4" offset="1" ></stop></linearGradient><linearGradient id="SvgjsLinearGradient15506" x1="-20.4142" y1="85.3082" x2="-20.4142" y2="110.785" gradientTransform="matrix(-1 0 0 1 100 0)" gradientUnits="userSpaceOnUse" class="svga-on-canvas-glasses-gradient-single-1-null"><stop id="SvgjsStop15507" stop-opacity="1" stop-color="#899ba1" offset="0" ></stop><stop id="SvgjsStop15508" stop-opacity="0.6554" stop-color="#7490b3" offset="0.3446" ></stop><stop id="SvgjsStop15509" stop-opacity="0.2966" stop-color="#6589c0" offset="0.7034" ></stop><stop id="SvgjsStop15510" stop-opacity="0" stop-color="#6086c4" offset="1" ></stop></linearGradient><linearGradient id="SvgjsLinearGradient15565" x1="80.35" y1="109.9" x2="80.35" y2="90.7671" gradientTransform="matrix(1 0 0 -1 0 200)" gradientUnits="userSpaceOnUse" class="svga-on-canvas-glasses-gradient-single-0-null"><stop id="SvgjsStop15566" stop-opacity="1" stop-color="#bfeaf2" offset="0" ></stop><stop id="SvgjsStop15567" stop-opacity="0.649" stop-color="#a1cae3" offset="0.351" ></stop><stop id="SvgjsStop15568" stop-opacity="0" stop-color="#6086c4" offset="1" ></stop></linearGradient><linearGradient id="SvgjsLinearGradient15570" x1="-19.65" y1="109.9" x2="-19.65" y2="90.7671" gradientTransform="matrix(-1 0 0 -1 100 200)" gradientUnits="userSpaceOnUse" class="svga-on-canvas-glasses-gradient-single-1-null"><stop id="SvgjsStop15571" stop-opacity="1" stop-color="#bfeaf2" offset="0" ></stop><stop id="SvgjsStop15572" stop-opacity="0.649" stop-color="#a1cae3" offset="0.351" ></stop><stop id="SvgjsStop15573" stop-opacity="0" stop-color="#6086c4" offset="1" ></stop></linearGradient><linearGradient id="SvgjsLinearGradient15623" x1="81" y1="113.2516" x2="81" y2="87.433" gradientTransform="matrix(1 0 0 -1 0 200)" gradientUnits="userSpaceOnUse" class="svga-on-canvas-glasses-gradient-single-0-null"><stop id="SvgjsStop15624" stop-opacity="1" stop-color="#9ab4d3" offset="0" ></stop><stop id="SvgjsStop15625" stop-opacity="0.7593" stop-color="#93aed1" offset="0.2407" ></stop><stop id="SvgjsStop15626" stop-opacity="0.4009" stop-color="#7e9ecc" offset="0.5991" ></stop><stop id="SvgjsStop15627" stop-opacity="0" stop-color="#6086c4" offset="1" ></stop></linearGradient><linearGradient id="SvgjsLinearGradient15629" x1="-19" y1="113.2516" x2="-19" y2="87.433" gradientTransform="matrix(-1 0 0 -1 100 200)" gradientUnits="userSpaceOnUse" class="svga-on-canvas-glasses-gradient-single-1-null"><stop id="SvgjsStop15630" stop-opacity="1" stop-color="#9ab4d3" offset="0" ></stop><stop id="SvgjsStop15631" stop-opacity="0.7593" stop-color="#93aed1" offset="0.2407" ></stop><stop id="SvgjsStop15632" stop-opacity="0.4009" stop-color="#7e9ecc" offset="0.5991" ></stop><stop id="SvgjsStop15633" stop-opacity="0" stop-color="#6086c4" offset="1" ></stop></linearGradient><linearGradient id="SvgjsLinearGradient15686" x1="79.5858" y1="85.3082" x2="79.5858" y2="110.785" gradientUnits="userSpaceOnUse" class="svga-on-canvas-glasses-gradient-single-0-null"><stop id="SvgjsStop15687" stop-opacity="1" stop-color="#899ba1" offset="0" ></stop><stop id="SvgjsStop15688" stop-opacity="0.6554" stop-color="#7490b3" offset="0.3446" ></stop><stop id="SvgjsStop15689" stop-opacity="0.2966" stop-color="#6589c0" offset="0.7034" ></stop><stop id="SvgjsStop15690" stop-opacity="0" stop-color="#6086c4" offset="1" ></stop></linearGradient><linearGradient id="SvgjsLinearGradient15692" x1="-20.4142" y1="85.3082" x2="-20.4142" y2="110.785" gradientTransform="matrix(-1 0 0 1 100 0)" gradientUnits="userSpaceOnUse" class="svga-on-canvas-glasses-gradient-single-1-null"><stop id="SvgjsStop15693" stop-opacity="1" stop-color="#899ba1" offset="0" ></stop><stop id="SvgjsStop15694" stop-opacity="0.6554" stop-color="#7490b3" offset="0.3446" ></stop><stop id="SvgjsStop15695" stop-opacity="0.2966" stop-color="#6589c0" offset="0.7034" ></stop><stop id="SvgjsStop15696" stop-opacity="0" stop-color="#6086c4" offset="1" ></stop></linearGradient><linearGradient id="SvgjsLinearGradient15751" x1="79.8605" y1="80.2962" x2="79.8605" y2="112.0897" gradientUnits="userSpaceOnUse" class="svga-on-canvas-glasses-gradient-single-0-null"><stop id="SvgjsStop15752" stop-opacity="1" stop-color="#b4c0cf" offset="0" ></stop><stop id="SvgjsStop15753" stop-opacity="0.9374" stop-color="#abbace" offset="0.06260771" ></stop><stop id="SvgjsStop15754" stop-opacity="0.679" stop-color="#8aa3ca" offset="0.321" ></stop><stop id="SvgjsStop15755" stop-opacity="0.4305" stop-color="#7393c6" offset="0.5695" ></stop><stop id="SvgjsStop15756" stop-opacity="0.1987" stop-color="#6589c5" offset="0.8013" ></stop><stop id="SvgjsStop15757" stop-opacity="0" stop-color="#6086c4" offset="1" ></stop></linearGradient><linearGradient id="SvgjsLinearGradient15759" x1="-20.1395" y1="80.2962" x2="-20.1395" y2="112.0897" gradientTransform="matrix(-1 0 0 1 100 0)" gradientUnits="userSpaceOnUse" class="svga-on-canvas-glasses-gradient-single-1-null"><stop id="SvgjsStop15760" stop-opacity="1" stop-color="#b4c0cf" offset="0" ></stop><stop id="SvgjsStop15761" stop-opacity="0.9374" stop-color="#abbace" offset="0.06260771" ></stop><stop id="SvgjsStop15762" stop-opacity="0.679" stop-color="#8aa3ca" offset="0.321" ></stop><stop id="SvgjsStop15763" stop-opacity="0.4305" stop-color="#7393c6" offset="0.5695" ></stop><stop id="SvgjsStop15764" stop-opacity="0.1987" stop-color="#6589c5" offset="0.8013" ></stop><stop id="SvgjsStop15765" stop-opacity="0" stop-color="#6086c4" offset="1" ></stop></linearGradient><linearGradient id="SvgjsLinearGradient15832" x1="78.9874" y1="84.3909" x2="78.9874" y2="113.9954" gradientUnits="userSpaceOnUse" class="svga-on-canvas-glasses-gradient-single-0-null"><stop id="SvgjsStop15833" stop-opacity="1" stop-color="#ff73b2" offset="0.004166667" ></stop><stop id="SvgjsStop15834" stop-opacity="0.8296" stop-color="#ff76aa" offset="0.1739" ></stop><stop id="SvgjsStop15835" stop-opacity="0.5716" stop-color="#ff7d96" offset="0.4308" ></stop><stop id="SvgjsStop15836" stop-opacity="0.2598" stop-color="#ff8874" offset="0.7413" ></stop><stop id="SvgjsStop15837" stop-opacity="0" stop-color="#ff9452" offset="1" ></stop></linearGradient><linearGradient id="SvgjsLinearGradient15839" x1="-23.0126" y1="84.3909" x2="-23.0126" y2="113.9954" gradientTransform="matrix(-1 0 0 1 98 0)" gradientUnits="userSpaceOnUse" class="svga-on-canvas-glasses-gradient-single-1-null"><stop id="SvgjsStop15840" stop-opacity="1" stop-color="#ff73b2" offset="0.004166667" ></stop><stop id="SvgjsStop15841" stop-opacity="0.8296" stop-color="#ff76aa" offset="0.1739" ></stop><stop id="SvgjsStop15842" stop-opacity="0.5716" stop-color="#ff7d96" offset="0.4308" ></stop><stop id="SvgjsStop15843" stop-opacity="0.2598" stop-color="#ff8874" offset="0.7413" ></stop><stop id="SvgjsStop15844" stop-opacity="0" stop-color="#ff9452" offset="1" ></stop></linearGradient><linearGradient id="SvgjsLinearGradient15919" x1="79.9967" y1="87.1358" x2="79.9967" y2="108.0529" gradientUnits="userSpaceOnUse" class="svga-on-canvas-glasses-gradient-single-0-null"><stop id="SvgjsStop15920" stop-opacity="1" stop-color="#ffba38" offset="0.004166667" ></stop><stop id="SvgjsStop15921" stop-opacity="0.8314" stop-color="#f5b232" offset="0.1721" ></stop><stop id="SvgjsStop15922" stop-opacity="0.541" stop-color="#d99d24" offset="0.4612" ></stop><stop id="SvgjsStop15923" stop-opacity="0.1664" stop-color="#ac7b0c" offset="0.8343" ></stop><stop id="SvgjsStop15924" stop-opacity="0" stop-color="#966a00" offset="1" ></stop></linearGradient><linearGradient id="SvgjsLinearGradient15927" x1="-22.0033" y1="87.1358" x2="-22.0033" y2="108.0529" gradientTransform="matrix(-1 0 0 1 98 0)" gradientUnits="userSpaceOnUse" class="svga-on-canvas-glasses-gradient-single-2-null"><stop id="SvgjsStop15928" stop-opacity="1" stop-color="#ffba38" offset="0.004166667" ></stop><stop id="SvgjsStop15929" stop-opacity="0.8314" stop-color="#f5b232" offset="0.1721" ></stop><stop id="SvgjsStop15930" stop-opacity="0.541" stop-color="#d99d24" offset="0.4612" ></stop><stop id="SvgjsStop15931" stop-opacity="0.1664" stop-color="#ac7b0c" offset="0.8343" ></stop><stop id="SvgjsStop15932" stop-opacity="0" stop-color="#966a00" offset="1" ></stop></linearGradient><linearGradient id="SvgjsLinearGradient15998" x1="79.2676" y1="84.4637" x2="79.2676" y2="113.8993" gradientUnits="userSpaceOnUse" class="svga-on-canvas-glasses-gradient-single-0-null"><stop id="SvgjsStop15999" stop-opacity="1" stop-color="#150000" offset="0.004166667" ></stop><stop id="SvgjsStop16000" stop-opacity="0.8088" stop-color="#190300" offset="0.1945" ></stop><stop id="SvgjsStop16001" stop-opacity="0.6342" stop-color="#240c00" offset="0.3684" ></stop><stop id="SvgjsStop16002" stop-opacity="0.466" stop-color="#361b00" offset="0.5359" ></stop><stop id="SvgjsStop16003" stop-opacity="0.3018" stop-color="#503100" offset="0.6994" ></stop><stop id="SvgjsStop16004" stop-opacity="0.1421" stop-color="#724c00" offset="0.8585" ></stop><stop id="SvgjsStop16005" stop-opacity="0" stop-color="#966a00" offset="1" ></stop></linearGradient><linearGradient id="SvgjsLinearGradient16007" x1="-22.7324" y1="84.4637" x2="-22.7324" y2="113.8993" gradientTransform="matrix(-1 0 0 1 98 0)" gradientUnits="userSpaceOnUse" class="svga-on-canvas-glasses-gradient-single-1-null"><stop id="SvgjsStop16008" stop-opacity="1" stop-color="#150000" offset="0.004166667" ></stop><stop id="SvgjsStop16009" stop-opacity="0.8088" stop-color="#190300" offset="0.1945" ></stop><stop id="SvgjsStop16010" stop-opacity="0.6342" stop-color="#240c00" offset="0.3684" ></stop><stop id="SvgjsStop16011" stop-opacity="0.466" stop-color="#361b00" offset="0.5359" ></stop><stop id="SvgjsStop16012" stop-opacity="0.3018" stop-color="#503100" offset="0.6994" ></stop><stop id="SvgjsStop16013" stop-opacity="0.1421" stop-color="#724c00" offset="0.8585" ></stop><stop id="SvgjsStop16014" stop-opacity="0" stop-color="#966a00" offset="1" ></stop></linearGradient><linearGradient id="SvgjsLinearGradient16083" x1="78.9874" y1="84.3909" x2="78.9874" y2="113.9954" gradientUnits="userSpaceOnUse" class="svga-on-canvas-glasses-gradient-single-0-null"><stop id="SvgjsStop16084" stop-opacity="1" stop-color="#ff73b2" offset="0.004166667" ></stop><stop id="SvgjsStop16085" stop-opacity="0.8296" stop-color="#ff76aa" offset="0.1739" ></stop><stop id="SvgjsStop16086" stop-opacity="0.5716" stop-color="#ff7d96" offset="0.4308" ></stop><stop id="SvgjsStop16087" stop-opacity="0.2598" stop-color="#ff8874" offset="0.7413" ></stop><stop id="SvgjsStop16088" stop-opacity="0" stop-color="#ff9452" offset="1" ></stop></linearGradient><linearGradient id="SvgjsLinearGradient16090" x1="-23.0126" y1="84.3909" x2="-23.0126" y2="113.9954" gradientTransform="matrix(-1 0 0 1 98 0)" gradientUnits="userSpaceOnUse" class="svga-on-canvas-glasses-gradient-single-1-null"><stop id="SvgjsStop16091" stop-opacity="1" stop-color="#ff73b2" offset="0.004166667" ></stop><stop id="SvgjsStop16092" stop-opacity="0.8296" stop-color="#ff76aa" offset="0.1739" ></stop><stop id="SvgjsStop16093" stop-opacity="0.5716" stop-color="#ff7d96" offset="0.4308" ></stop><stop id="SvgjsStop16094" stop-opacity="0.2598" stop-color="#ff8874" offset="0.7413" ></stop><stop id="SvgjsStop16095" stop-opacity="0" stop-color="#ff9452" offset="1" ></stop></linearGradient><linearGradient id="SvgjsLinearGradient16418" x1="79.5858" y1="85.3082" x2="79.5858" y2="110.785" gradientUnits="userSpaceOnUse" class="svga-on-canvas-glasses-gradient-single-0-null"><stop id="SvgjsStop16419" stop-opacity="1" stop-color="#899ba1" offset="0" ></stop><stop id="SvgjsStop16420" stop-opacity="0.6554" stop-color="#7490b3" offset="0.3446" ></stop><stop id="SvgjsStop16421" stop-opacity="0.2966" stop-color="#6589c0" offset="0.7034" ></stop><stop id="SvgjsStop16422" stop-opacity="0" stop-color="#6086c4" offset="1" ></stop></linearGradient><linearGradient id="SvgjsLinearGradient16424" x1="-20.4142" y1="85.3082" x2="-20.4142" y2="110.785" gradientTransform="matrix(-1 0 0 1 100 0)" gradientUnits="userSpaceOnUse" class="svga-on-canvas-glasses-gradient-single-1-null"><stop id="SvgjsStop16425" stop-opacity="1" stop-color="#899ba1" offset="0" ></stop><stop id="SvgjsStop16426" stop-opacity="0.6554" stop-color="#7490b3" offset="0.3446" ></stop><stop id="SvgjsStop16427" stop-opacity="0.2966" stop-color="#6589c0" offset="0.7034" ></stop><stop id="SvgjsStop16428" stop-opacity="0" stop-color="#6086c4" offset="1" ></stop></linearGradient><linearGradient id="SvgjsLinearGradient16508" x1="80.4" y1="115.4624" x2="80.4" y2="87.1624" gradientTransform="matrix(1 0 0 -1 0 200)" gradientUnits="userSpaceOnUse" class="svga-on-canvas-glasses-gradient-single-0-null"><stop id="SvgjsStop16509" stop-opacity="1" stop-color="#211810" offset="0" ></stop><stop id="SvgjsStop16510" stop-opacity="0.7372" stop-color="#231b13" offset="0.2628" ></stop><stop id="SvgjsStop16511" stop-opacity="0.5527" stop-color="#2b231c" offset="0.4473" ></stop><stop id="SvgjsStop16512" stop-opacity="0.3921" stop-color="#38312c" offset="0.6079" ></stop><stop id="SvgjsStop16513" stop-opacity="0.2453" stop-color="#4b4641" offset="0.7547" ></stop><stop id="SvgjsStop16514" stop-opacity="0.1091" stop-color="#62605e" offset="0.8909" ></stop><stop id="SvgjsStop16515" stop-opacity="0" stop-color="#7a7a7a" offset="1" ></stop></linearGradient><linearGradient id="SvgjsLinearGradient16517" x1="-19.6" y1="115.4624" x2="-19.6" y2="87.1624" gradientTransform="matrix(-1 0 0 -1 100 200)" gradientUnits="userSpaceOnUse" class="svga-on-canvas-glasses-gradient-single-1-null"><stop id="SvgjsStop16518" stop-opacity="1" stop-color="#211810" offset="0" ></stop><stop id="SvgjsStop16519" stop-opacity="0.7372" stop-color="#231b13" offset="0.2628" ></stop><stop id="SvgjsStop16520" stop-opacity="0.5527" stop-color="#2b231c" offset="0.4473" ></stop><stop id="SvgjsStop16521" stop-opacity="0.3921" stop-color="#38312c" offset="0.6079" ></stop><stop id="SvgjsStop16522" stop-opacity="0.2453" stop-color="#4b4641" offset="0.7547" ></stop><stop id="SvgjsStop16523" stop-opacity="0.1091" stop-color="#62605e" offset="0.8909" ></stop><stop id="SvgjsStop16524" stop-opacity="0" stop-color="#7a7a7a" offset="1" ></stop></linearGradient><linearGradient id="SvgjsLinearGradient16598" x1="100" y1="86.57" x2="100" y2="109.62" gradientUnits="userSpaceOnUse" class="svga-on-canvas-glasses-gradient-single-0-null"><stop id="SvgjsStop16599" stop-opacity="1" stop-color="#3d2d1c" offset="0.0208" ></stop><stop id="SvgjsStop16600" stop-opacity="0.6291" stop-color="#402e1c" offset="0.3825" ></stop><stop id="SvgjsStop16601" stop-opacity="0.3897" stop-color="#48321d" offset="0.6159" ></stop><stop id="SvgjsStop16602" stop-opacity="0.1881" stop-color="#57381f" offset="0.8124" ></stop><stop id="SvgjsStop16603" stop-opacity="7.593334e-03" stop-color="#6c4221" offset="0.9884" ></stop><stop id="SvgjsStop16604" stop-opacity="0" stop-color="#6d4221" offset="0.9958" ></stop></linearGradient><linearGradient id="SvgjsLinearGradient16674" x1="80.7397" y1="87.2001" x2="80.7397" y2="110.7612" gradientUnits="userSpaceOnUse" class="svga-on-canvas-glasses-gradient-single-0-null"><stop id="SvgjsStop16675" stop-opacity="1" stop-color="#3d2d1c" offset="0.0208" ></stop><stop id="SvgjsStop16676" stop-opacity="0.6291" stop-color="#402e1c" offset="0.3825" ></stop><stop id="SvgjsStop16677" stop-opacity="0.3897" stop-color="#48321d" offset="0.6159" ></stop><stop id="SvgjsStop16678" stop-opacity="0.1881" stop-color="#57381f" offset="0.8124" ></stop><stop id="SvgjsStop16679" stop-opacity="7.593334e-03" stop-color="#6c4221" offset="0.9884" ></stop><stop id="SvgjsStop16680" stop-opacity="0" stop-color="#6d4221" offset="0.9958" ></stop></linearGradient><linearGradient id="SvgjsLinearGradient16682" x1="-21.2603" y1="87.2001" x2="-21.2603" y2="110.7612" gradientTransform="matrix(-1 0 0 1 98 0)" gradientUnits="userSpaceOnUse" class="svga-on-canvas-glasses-gradient-single-1-null"><stop id="SvgjsStop16683" stop-opacity="1" stop-color="#3d2d1c" offset="0.0208" ></stop><stop id="SvgjsStop16684" stop-opacity="0.6291" stop-color="#402e1c" offset="0.3825" ></stop><stop id="SvgjsStop16685" stop-opacity="0.3897" stop-color="#48321d" offset="0.6159" ></stop><stop id="SvgjsStop16686" stop-opacity="0.1881" stop-color="#57381f" offset="0.8124" ></stop><stop id="SvgjsStop16687" stop-opacity="7.593334e-03" stop-color="#6c4221" offset="0.9884" ></stop><stop id="SvgjsStop16688" stop-opacity="0" stop-color="#6d4221" offset="0.9958" ></stop></linearGradient></defs></svg>